<?xml version="1.0" standalone="no"?>
<!DOCTYPE svg PUBLIC "-//W3C//DTD SVG 20010904//EN"
 "http://www.w3.org/TR/2001/REC-SVG-20010904/DTD/svg10.dtd">
<svg version="1.0" xmlns="http://www.w3.org/2000/svg"
 width="1536.000000pt" height="1920.000000pt" viewBox="0 0 1536.000000 1920.000000"
 preserveAspectRatio="xMidYMid meet">

<g transform="translate(0.000000,1920.000000) scale(0.100000,-0.100000)"
fill="#000000" stroke="none">
<path d="M11476 13129 c-65 -15 -197 -83 -283 -145 -230 -166 -540 -489 -899
-939 -266 -332 -433 -569 -847 -1207 -152 -233 -349 -519 -354 -514 -2 2 12
30 30 62 74 127 127 227 124 231 -6 5 -152 -147 -194 -201 -20 -28 -49 -73
-65 -100 l-28 -51 0 45 c1 99 37 190 140 348 33 51 60 95 60 98 0 3 -20 -12
-46 -33 -37 -31 -103 -104 -192 -212 -21 -26 -6 22 34 108 19 40 34 75 34 78
0 18 -157 -125 -197 -179 -19 -27 -38 -48 -43 -48 -23 0 59 186 122 278 32 46
30 51 -10 24 -15 -10 -67 -45 -117 -77 -49 -32 -116 -80 -147 -107 -32 -28
-58 -46 -58 -41 0 15 91 186 131 247 22 32 38 60 36 62 -8 8 -110 -71 -196
-152 -68 -64 -92 -82 -86 -64 12 40 95 201 127 248 16 23 25 42 20 42 -5 0
-54 -43 -110 -95 -102 -97 -164 -179 -229 -302 -19 -38 -36 -70 -38 -71 -5 -6
39 133 84 262 23 65 39 121 37 123 -5 5 -150 -173 -180 -219 -21 -33 -34 -31
-16 2 16 31 72 221 67 227 -5 4 -74 -111 -151 -249 -20 -37 -40 -69 -44 -72
-15 -9 65 222 103 295 20 41 42 80 47 87 24 28 -12 8 -80 -48 -68 -54 -201
-195 -202 -212 0 -5 -4 -8 -9 -8 -4 0 13 60 39 133 26 72 51 143 55 157 l7 25
-27 -25 c-35 -32 -124 -142 -158 -197 -34 -54 -91 -193 -107 -261 -7 -29 -14
-51 -17 -48 -10 10 52 340 83 439 18 59 -113 -98 -160 -190 -9 -18 -20 -33
-25 -33 -4 0 -25 56 -46 125 -21 69 -42 125 -48 125 -6 0 -8 -67 -5 -174 2
-96 0 -172 -4 -170 -5 3 -8 15 -8 27 0 28 -60 239 -71 251 -5 6 -9 -51 -9
-140 0 -162 -9 -284 -20 -284 -4 0 -13 42 -19 93 -20 160 -72 462 -81 470 -12
13 -22 -176 -18 -325 1 -70 0 -124 -3 -120 -4 4 -35 43 -70 87 -69 88 -178
205 -190 205 -5 0 9 -33 31 -72 44 -83 102 -234 98 -256 -2 -10 -17 3 -42 34
-84 105 -328 336 -341 323 -2 -2 28 -47 67 -99 39 -52 85 -124 103 -160 35
-69 79 -204 73 -222 -3 -7 -31 22 -63 63 -60 74 -242 271 -258 278 -5 2 16
-46 46 -105 65 -129 87 -181 86 -203 0 -13 -2 -13 -12 3 -59 93 -224 292 -234
282 -2 -2 2 -17 10 -33 23 -44 89 -225 84 -229 -2 -3 -23 26 -45 63 -47 78
-101 144 -102 125 0 -7 6 -26 14 -41 21 -40 97 -263 92 -268 -3 -3 -11 5 -18
18 -39 67 -190 291 -193 287 -8 -7 30 -128 64 -211 19 -43 31 -80 29 -83 -5
-5 -118 161 -162 238 -31 54 -63 86 -53 53 36 -124 78 -287 74 -291 -3 -3 -40
50 -82 118 -43 68 -80 125 -81 127 -23 27 12 -151 50 -254 27 -73 26 -94 -1
-55 -9 13 -42 52 -74 87 -31 34 -72 89 -90 120 -18 32 -34 53 -36 46 -2 -6 16
-63 40 -125 25 -62 48 -124 51 -138 7 -24 7 -25 -9 -5 -25 31 -95 161 -126
234 -17 39 -29 57 -29 44 0 -27 34 -176 60 -262 22 -70 24 -81 12 -81 -12 0
-133 164 -192 260 -75 122 -84 127 -55 33 22 -70 99 -299 121 -358 4 -11 -37
23 -92 75 -99 95 -235 210 -248 210 -4 0 9 -19 29 -42 42 -50 207 -266 220
-288 4 -8 -12 3 -36 25 -219 203 -278 255 -283 255 -12 0 94 -155 154 -224 77
-89 56 -72 -180 145 -317 291 -456 413 -670 590 -777 643 -1214 923 -1573
1009 -245 59 -326 -13 -357 -319 -40 -403 46 -1066 225 -1719 70 -255 128
-423 227 -652 44 -102 109 -254 144 -337 78 -189 167 -380 211 -453 18 -30 31
-56 29 -58 -2 -2 -48 19 -102 47 -99 50 -156 86 -233 149 -23 19 -41 31 -41
27 0 -17 84 -126 132 -171 60 -57 119 -90 220 -123 38 -13 68 -25 68 -27 0 -8
-88 6 -150 22 -99 27 -253 86 -353 135 -105 53 -115 46 -37 -25 117 -106 274
-186 463 -237 111 -30 94 -37 -98 -38 -149 -1 -240 13 -322 48 l-48 21 53 -50
c63 -59 137 -86 285 -103 53 -6 97 -14 97 -17 0 -11 -76 -31 -185 -49 l-100
-18 54 -16 c66 -20 172 -21 226 -2 50 18 55 13 13 -13 -96 -59 -248 -102 -398
-111 l-105 -6 60 -30 c57 -29 66 -30 185 -30 70 0 139 6 157 12 18 7 33 8 33
3 0 -9 -52 -30 -225 -90 -222 -77 -360 -145 -485 -237 -99 -74 -106 -81 -40
-45 30 16 96 46 147 66 78 31 417 149 492 171 47 14 10 -15 -85 -66 -95 -51
-203 -138 -173 -139 8 0 39 7 67 15 29 8 74 22 102 29 28 8 50 13 50 11 0 -2
-20 -13 -45 -24 -162 -72 -409 -290 -371 -328 3 -3 29 16 58 42 56 50 168 111
264 144 33 11 68 23 79 27 18 6 17 4 -5 -21 -14 -15 -97 -91 -185 -169 l-160
-141 -485 -6 c-724 -10 -1318 -44 -1820 -105 -216 -26 -422 -63 -438 -78 -8
-9 -6 -9 285 24 608 69 1137 104 1738 115 160 3 376 7 482 10 l192 5 -83 -87
c-98 -102 -246 -274 -246 -285 0 -5 48 28 108 71 59 44 161 113 227 155 66 41
132 85 148 96 46 37 30 6 -50 -93 -160 -196 -270 -348 -323 -444 -23 -41 -23
-41 -94 -48 -582 -54 -1604 -230 -2102 -360 -128 -34 -361 -109 -372 -120 -12
-11 28 -3 197 40 635 160 1493 315 2115 379 194 21 189 21 181 -5 -7 -21 -6
-20 27 4 37 28 124 47 221 47 l57 0 -25 -50 c-32 -64 -55 -159 -55 -234 0 -73
9 -67 72 42 48 81 214 266 249 277 43 14 36 -12 -23 -85 -34 -41 -126 -173
-205 -292 -143 -216 -144 -217 -171 -206 -15 6 -67 11 -117 11 -81 1 -97 -2
-155 -29 -67 -32 -119 -76 -181 -153 l-36 -45 -78 23 c-212 63 -403 -25 -560
-260 -57 -85 -112 -212 -121 -282 l-7 -47 -783 0 -784 0 0 -40 0 -40 908 -2
909 -3 36 -28 c51 -39 73 -87 86 -190 23 -176 68 -266 141 -288 77 -23 167 37
224 151 22 43 60 152 69 195 2 11 7 -20 11 -70 39 -474 82 -602 228 -674 107
-54 230 -38 325 43 93 79 168 288 208 581 12 83 13 86 14 35 0 -30 8 -116 17
-190 48 -417 131 -554 334 -555 60 0 86 5 130 26 134 63 220 219 237 427 3 40
9 75 13 77 4 3 10 -24 12 -58 6 -74 41 -160 76 -187 73 -58 211 28 286 178 52
104 68 191 70 372 l1 165 3265 -2 c1796 -1 3307 -2 3358 -3 l92 0 0 -38 c0
-47 33 -179 55 -223 25 -47 94 -118 137 -140 41 -21 89 -25 119 -9 36 20 77
133 80 223 1 18 9 -13 19 -68 27 -151 59 -222 130 -294 136 -135 371 -108 453
52 43 86 85 326 88 511 1 45 3 40 20 -50 23 -125 86 -307 129 -374 96 -149
245 -198 381 -124 118 65 157 166 175 459 6 96 7 98 19 64 47 -133 128 -219
205 -219 69 0 110 46 141 160 7 25 19 51 28 57 12 10 241 13 1073 13 l1058 0
0 40 0 40 -912 0 -912 0 -27 84 c-63 202 -193 366 -349 440 -56 26 -81 31
-175 37 -150 9 -175 20 -279 134 -101 110 -145 135 -233 135 l-60 0 -13 62
c-6 35 -18 75 -26 90 -8 15 -14 30 -14 33 0 3 26 3 58 0 113 -12 120 -14 143
-51 11 -19 23 -33 26 -30 3 3 -2 15 -11 28 -24 34 -20 39 32 33 678 -82 897
-113 1367 -191 214 -36 624 -111 660 -121 15 -4 17 -2 9 6 -15 16 -289 84
-486 120 -427 79 -1269 202 -1551 227 l-78 7 -26 51 c-52 105 -178 324 -239
419 -35 53 -60 97 -55 97 6 0 89 -77 185 -171 97 -94 176 -168 176 -163 0 15
-115 211 -185 314 -39 58 -74 110 -78 116 -4 8 17 12 71 13 42 1 178 8 302 16
512 34 842 46 1320 52 278 3 511 9 519 13 51 27 -753 30 -1279 5 -412 -19
-836 -43 -910 -51 l-55 -5 -85 108 c-47 59 -112 142 -146 183 -91 114 -88 113
47 -4 68 -60 149 -125 179 -146 61 -41 120 -73 125 -68 2 2 -26 37 -62 78 -52
60 -284 343 -326 398 -24 32 4 17 54 -28 67 -61 263 -177 406 -240 104 -46
200 -76 210 -66 3 3 -17 16 -44 29 -105 54 -428 280 -477 336 -28 31 -7 26 98
-24 101 -49 209 -75 304 -75 73 0 99 15 43 24 -65 10 -141 42 -223 94 l-77 48
72 18 c292 71 1044 219 1556 306 299 51 386 69 364 77 -58 21 -1145 -167
-1780 -308 -122 -27 -229 -49 -238 -49 -37 0 -397 378 -448 471 -16 29 -14 28
19 -11 98 -117 259 -248 379 -308 61 -30 135 -50 135 -35 -1 4 -31 26 -67 48
-87 52 -331 294 -405 400 -59 85 -123 195 -115 195 3 0 15 -17 28 -37 101
-170 345 -375 514 -433 32 -11 63 -19 67 -18 5 2 -20 22 -54 45 -134 88 -258
210 -426 420 -45 55 -87 103 -94 106 -7 3 -8 6 -3 6 25 2 237 -99 308 -147 42
-29 77 -49 77 -44 0 22 -204 206 -295 264 -55 36 -107 73 -115 83 -14 17 -13
17 10 10 191 -59 267 -101 640 -352 36 -24 -111 112 -189 175 -102 83 -251
178 -395 253 -151 79 -126 95 38 24 17 -8 17 -6 2 23 -9 17 -59 65 -112 107
-53 42 -94 78 -92 80 2 3 26 -3 53 -11 61 -19 339 -32 349 -16 3 6 -28 23 -78
41 -99 35 -251 110 -242 118 3 3 39 0 80 -7 95 -16 247 -9 304 15 23 9 42 20
42 24 0 3 -27 4 -59 3 -78 -5 -159 17 -286 77 -105 50 -130 69 -77 58 49 -10
163 20 262 69 77 39 110 62 177 130 46 45 83 87 83 93 0 6 -33 -11 -72 -38
-40 -27 -107 -63 -148 -79 -105 -42 -313 -85 -279 -59 2 2 38 29 80 60 42 32
93 75 114 98 41 46 97 130 90 137 -2 2 -24 -12 -48 -32 -24 -20 -84 -59 -133
-87 -49 -28 -100 -61 -113 -72 -23 -21 -24 -21 -17 -2 98 261 210 744 261
1122 37 280 46 400 52 708 17 822 -113 1640 -306 1924 -48 70 -122 125 -191
140 -52 12 -52 12 -104 0z m-1925 -2316 c-5 -10 -17 -27 -26 -38 -16 -19 -17
-19 -3 5 26 46 29 50 34 50 3 0 0 -8 -5 -17z m-51 -83 c-6 -11 -13 -20 -16
-20 -2 0 0 9 6 20 6 11 13 20 16 20 2 0 0 -9 -6 -20z m-110 -190 c-11 -22 -23
-40 -25 -40 -3 0 4 18 15 40 11 22 23 40 25 40 3 0 -4 -18 -15 -40z m458
-1510 c100 -13 230 -50 335 -95 277 -120 517 -390 617 -694 85 -261 79 -557
-17 -785 -68 -163 -200 -331 -356 -450 -142 -109 -257 -142 -457 -131 -69 4
-173 6 -232 5 -72 -1 -163 7 -275 25 -323 49 -378 69 -476 173 -34 36 -114
118 -178 182 -74 73 -126 134 -143 167 -86 171 -124 416 -96 618 36 246 132
442 310 628 264 276 605 402 968 357z m-4090 -55 c224 -47 411 -147 569 -302
230 -227 368 -609 333 -923 -29 -267 -130 -473 -319 -653 -139 -132 -222 -165
-518 -207 -188 -27 -282 -26 -401 5 -142 35 -212 40 -314 21 -84 -16 -89 -16
-145 4 -136 47 -321 205 -420 357 -116 178 -163 322 -170 526 -7 163 5 249 53
395 55 170 138 302 276 443 46 47 115 108 153 137 143 106 352 189 534 212 91
12 281 4 369 -15z m-1083 -237 c-60 -67 -144 -189 -202 -294 -19 -35 -37 -64
-40 -64 -8 0 64 128 122 215 47 71 159 205 172 205 2 0 -21 -28 -52 -62z
m4132 -50 c-41 -57 -84 -120 -96 -140 -12 -21 -25 -38 -28 -38 -10 0 76 132
144 223 71 93 59 65 -20 -45z m1808 52 c10 -11 16 -20 13 -20 -3 0 -13 9 -23
20 -10 11 -16 20 -13 20 3 0 13 -9 23 -20z m129 -181 c25 -42 59 -108 76 -146
32 -77 81 -252 79 -287 -1 -11 -5 -1 -11 24 -37 175 -114 359 -205 489 -33 47
-40 61 -19 36 19 -22 55 -74 80 -116z m-4204 -19 c6 -11 8 -20 6 -20 -3 0 -10
9 -16 20 -6 11 -8 20 -6 20 3 0 10 -9 16 -20z m50 -90 c35 -69 90 -229 89
-256 0 -11 -9 11 -20 48 -10 37 -39 113 -63 168 -24 55 -42 100 -40 100 2 0
17 -27 34 -60z m97 -302 c-3 -8 -6 -5 -6 6 -1 11 2 17 5 13 3 -3 4 -12 1 -19z
m10 -60 c-3 -7 -5 -2 -5 12 0 14 2 19 5 13 2 -7 2 -19 0 -25z m4210 -20 c-3
-8 -6 -5 -6 6 -1 11 2 17 5 13 3 -3 4 -12 1 -19z m-7683 -1380 c-5 -7 -33 -51
-62 -98 -69 -107 -152 -246 -152 -256 0 -4 48 -4 107 0 59 4 104 4 100 -1 -4
-4 -95 -10 -201 -14 -106 -4 -203 -10 -216 -14 -15 -5 -20 -4 -16 4 22 35 424
391 442 391 3 0 2 -6 -2 -12z m8837 -125 c87 -93 442 -553 433 -562 -2 -2 -36
0 -76 3 l-73 7 -63 133 c-72 151 -175 321 -251 413 -28 35 -51 65 -51 68 0 13
39 -17 81 -62z m-8700 -121 c-18 -34 -89 -107 -97 -100 -4 4 15 32 42 62 50
55 72 70 55 38z m2562 -149 c-7 -2 -19 -2 -25 0 -7 3 -2 5 12 5 14 0 19 -2 13
-5z m104 -9 c-3 -3 -12 -4 -19 -1 -8 3 -5 6 6 6 11 1 17 -2 13 -5z m4556 -151
c-7 -2 -19 -2 -25 0 -7 3 -2 5 12 5 14 0 19 -2 13 -5z m-7294 -45 c-6 -13 -33
-52 -59 -88 -25 -36 -75 -112 -110 -170 -34 -58 -71 -117 -81 -132 -24 -33
-24 -38 -1 -38 20 0 79 37 141 88 23 19 41 31 41 28 0 -17 -51 -104 -74 -125
-34 -31 -97 -34 -124 -5 -11 11 -47 31 -81 44 l-61 22 59 67 c62 69 212 217
293 289 53 47 75 55 57 20z m7884 15 c-7 -2 -21 -2 -30 0 -10 3 -4 5 12 5 17
0 24 -2 18 -5z m925 -43 c13 -16 30 -30 39 -30 9 0 14 -3 10 -6 -14 -14 -58 8
-72 36 -20 39 -5 39 23 0z m180 -47 c-16 -2 -40 -2 -55 0 -16 2 -3 4 27 4 30
0 43 -2 28 -4z m-113 -31 c6 -4 27 -29 49 -57 21 -27 63 -72 93 -100 l54 -50
-61 -21 -62 -22 -43 67 c-47 72 -95 164 -95 181 0 11 50 13 65 2z"/>
<path d="M9635 8730 c-387 -101 -620 -436 -602 -865 15 -343 190 -622 482
-768 187 -92 380 -94 679 -5 165 49 256 104 342 209 89 109 158 283 171 434 7
88 -12 255 -39 344 -31 102 -108 261 -127 261 -38 0 -97 24 -123 50 -21 22
-28 38 -28 69 0 38 -3 42 -82 99 -223 163 -470 226 -673 172z m102 -6 c-3 -3
-12 -4 -19 -1 -8 3 -5 6 6 6 11 1 17 -2 13 -5z m-62 -14 c-11 -5 -27 -9 -35
-9 -9 0 -8 4 5 9 11 5 27 9 35 9 9 0 8 -4 -5 -9z m932 -827 c-3 -10 -5 -4 -5
12 0 17 2 24 5 18 2 -7 2 -21 0 -30z m-1173 -414 c24 -11 39 -38 52 -91 5 -23
0 -34 -30 -64 -33 -33 -41 -36 -74 -31 -42 7 -102 64 -102 97 0 28 26 77 47
89 24 14 76 14 107 0z"/>
<path d="M5522 8689 c-83 -13 -207 -59 -285 -105 -357 -216 -492 -734 -296
-1141 91 -190 264 -344 458 -410 143 -48 352 -40 596 22 140 35 215 75 300
159 206 203 285 522 200 811 -26 90 -117 295 -131 295 -4 0 -16 -8 -27 -17
-13 -13 -36 -18 -73 -18 -48 0 -57 4 -90 37 -30 30 -37 43 -37 77 0 22 8 52
17 65 9 14 16 27 16 30 0 8 -151 98 -214 126 -141 64 -301 90 -434 69z m-272
-202 c0 -2 -12 -14 -27 -28 l-28 -24 24 28 c23 25 31 32 31 24z m22 -1088 c24
-13 49 -64 50 -100 1 -38 -25 -66 -73 -79 -67 -18 -129 30 -129 100 0 81 74
120 152 79z m1028 8 c0 -2 -17 -19 -37 -38 l-38 -34 34 38 c33 34 41 42 41 34z"/>
<path d="M2890 6238 c-35 -13 -59 -37 -81 -80 -39 -77 -18 -91 31 -20 18 26
44 59 58 74 29 32 27 40 -8 26z"/>
</g>
</svg>
